# xmcd
#
# Track frame offsets:
#	150
#	10795
#	20080
#	30890
#	37775
#	53327
#	67420
#	77772
#	86480
#	96202
#	112227
#	125387
#	136347
#	150102
#	160830
#	172192
#	180197
#	191222
#	196117
#	203235
#	214020
#
# Disc length: 2939 seconds
#
# Revision: 6
# Processed by: cddbd v1.5.2PL0 Copyright (c) Steve Scherf et al.
# Submitted via: EasyCDDAExtractor 10.0.6.1
#
DISCID=0c0b7915
DTITLE=David Grisman, Bob Brozman and Mike Auldridge - Tone Poems III
DYEAR=2000
DGENRE=Bluegrass
TTITLE0=Nostalgia Prelude
TTITLE1=Akaka Falls
TTITLE2=Moonlight Bay
TTITLE3=Peach Pickin' Time In Georgia
TTITLE4=St. Louis Blues
TTITLE5=Whispering
TTITLE6=Trash Can Stomp
TTITLE7=Frankie And Johnny
TTITLE8=Kohala March
TTITLE9=Crazy Rhythm
TTITLE10=Beat Biscuit Blues
TTITLE11=Great Specked Bird
TTITLE12=It Happened In Monterey
TTITLE13=Limehouse Blues
TTITLE14=Style O Blues
TTITLE15=Honolulu Nights
TTITLE16=Stompin' At The Savoy
TTITLE17=Fort Worth Drag
TTITLE18=Just Joshin'
TTITLE19=New Steal
TTITLE20=Las Ninas
EXTD=
EXTT0=
EXTT1=
EXTT2=
EXTT3=
EXTT4=
EXTT5=
EXTT6=
EXTT7=
EXTT8=
EXTT9=
EXTT10=
EXTT11=
EXTT12=
EXTT13=
EXTT14=
EXTT15=
EXTT16=
EXTT17=
EXTT18=
EXTT19=
EXTT20=
PLAYORDER=
